<?xml version="1.0" standalone="no"?><!DOCTYPE svg PUBLIC "-//W3C//DTD SVG 1.1//EN" "http://www.w3.org/Graphics/SVG/1.1/DTD/svg11.dtd"><svg t="1555931205405" class="icon" style="" viewBox="0 0 1024 1024" version="1.1" xmlns="http://www.w3.org/2000/svg" p-id="738" xmlns:xlink="http://www.w3.org/1999/xlink" width="32" height="32"><defs><style type="text/css"></style></defs><path d="M529.0752 63.97952c57.9328 0 114.13504 11.34592 167.02464 33.7152 51.0976 21.61664 96.9984 52.56192 136.42752 91.9808 39.41888 39.424 70.36928 85.31968 91.99104 136.4224 22.37952 52.89984 33.72544 109.09696 33.72544 167.04 0 57.9328-11.34592 114.13504-33.72544 167.02464-21.62176 51.0976-52.57728 96.98816-91.99104 136.41728-39.42912 39.41888-85.32992 70.36928-136.42752 91.9808-52.8896 22.36928-109.09184 33.72032-167.02464 33.72032-57.93792 0-114.12992-11.35104-167.01952-33.72032-51.0976-21.61152-96.98816-52.5568-136.40704-91.97568-39.41888-39.41888-70.36416-85.31456-91.97568-136.4224-22.36928-52.8896-33.7152-109.08672-33.7152-167.02464 0-57.94304 11.34592-114.14528 33.7152-167.04 21.61152-51.10272 52.5568-96.9984 91.97056-136.4224 39.41376-39.424 85.31456-70.36928 136.40704-91.9808C414.94528 75.32032 471.1424 63.97952 529.0752 63.97952M529.0752 43.51488c-248.28928 0-449.58208 201.30304-449.58208 449.62304 0 248.2944 201.2928 449.59232 449.58208 449.59232 248.28416 0 449.63328-201.29792 449.63328-449.59232C978.70848 244.8128 777.35936 43.51488 529.0752 43.51488L529.0752 43.51488z" p-id="739"></path><path d="M186.86976 570.20928l327.94112 0 0 28.66688L186.86976 598.87616 186.86976 570.20928zM212.1216 346.69056l278.46144 0 0 29.34784L212.1216 376.0384 212.1216 346.69056z" p-id="740"></path><path d="M533.5808 500.93568l153.90208 0 0-61.0816-130.01216 0 0-26.96192 130.01216 0 0-61.5936c-43.1104 1.70496-86.90176 3.12832-131.3792 4.26496-1.36192-9.55392-3.072-18.88256-5.12-27.98592 116.25472-1.81248 210.55488-5.90848 282.90048-12.28288l4.43904 27.98592c-40.04352 2.50368-80.768 4.72064-122.16832 6.656l0 62.96064 123.86816 0 0 26.96192-123.86816 0 0 61.0816 153.22112 0 0 26.96192-153.22112 0 0 62.79168c0 27.63776-14.11072 41.63584-42.32192 41.97376-14.33088 0-34.23744-0.11264-59.71456-0.33792-1.13664-10.4704-2.95936-20.81792-5.45792-31.0528 25.48224 1.8176 44.70272 2.72896 57.6768 2.72896 14.10048 0 21.15072-7.62368 21.15072-22.86592l0-53.23264-153.90208 0L533.58592 500.93568z" p-id="741"></path></svg>